<svg xmlns="http://www.w3.org/2000/svg" xml:space="preserve" width="512" height="512" id="youtube">
  <g fill="#1A1A1A" fill-rule="evenodd" clip-rule="evenodd">
    <path d="m222.899 205.461.011 21.885.015 71.98 86.521-46.759-47.523-25.845z"></path>
    <path d="M434.478 16H77.519C43.718 16 16 43.717 16 77.521v356.957C16 468.286 43.718 496 77.519 496h356.959C468.281 496 496 468.286 496 434.479V77.521C496 43.717 468.281 16 434.478 16zM416 247.932v20.656c0 27.054-3.129 54.085-3.129 54.085s-3.072 23.013-12.678 33.141c-12.177 13.327-25.816 13.378-32.048 14.169-44.861 3.352-112.157 3.482-112.157 3.482s-83.288-.813-108.927-3.367c-7.103-1.385-23.119-.957-35.339-14.27-9.58-10.121-12.608-33.155-12.608-33.155S96 295.642 96 268.588v-25.332c0-27.028 3.116-54.057 3.116-54.057s3.078-23.03 12.658-33.169c12.221-13.303 25.828-13.142 32.089-13.893C188.677 138.76 255.924 139 255.924 139h.148s67.234-.24 112.096 3.116c6.231.772 19.893.732 32.069 14.035 9.605 10.116 12.634 33.098 12.634 33.098S416 216.228 416 243.256v4.676z"></path>
  </g>
</svg>
